<svg viewBox="0 -960 960 960" height="24" width="24" focusable="false" class="Q6yead QJZfhe c-qd a-s-fa-Ha-pa NMm5M"><path d="M280-520v-80H600v80H280Zm0,160v-80H840v80H280Zm0,160v-80H840v80H280ZM160-520q-17,0-28.5-11.5T120-560t11.5-28.5T160-600t28.5,11.5T200-560t-11.5,28.5T160-520Zm0,160q-17,0-28.5-11.5T120-400t11.5-28.5T160-440t28.5,11.5T200-400t-11.5,28.5T160-360Zm0,160q-17,0-28.5-11.5T120-240t11.5-28.5T160-280t28.5,11.5T200-240t-11.5,28.5T160-200ZM740-560q-1,0-8-6q-16-61-60.5-105.5T566-732q-2-1-6-8q0-2 6-8q61-16 105.5-60.5T732-914q1-2 8-6q2,0 8,6q17,61 61,105.5T914-748q2,0 6,8q0,1-6,8q-61,16-105.5,60.5T748-566q0,2-8,6Z"/></svg>